<?xml version="1.0" encoding="UTF-8"?>
<svg id="Layer_1" data-name="Layer 1" xmlns="http://www.w3.org/2000/svg" viewBox="0 0 100 100">
  <defs>
    <style>
      .cls-1 {
        fill: #355b75;
      }
    </style>
  </defs>
  <circle class="cls-1" cx="50" cy="25.35" r="25.35"/>
  <path class="cls-1" d="M92.08,100H7.92c-4.18,0-7.24-3.95-6.18-8,1.46-5.61,4.37-13.52,10.14-21.54,5.44-7.55,12.7-12.56,18.57-15.68,1.79-.95,3.91-.98,5.73-.11,4.19,1.98,8.88,3.1,13.82,3.1s9.63-1.11,13.82-3.1c1.83-.86,3.95-.84,5.73.11,5.87,3.11,13.13,8.13,18.57,15.68,5.78,8.02,8.69,15.93,10.14,21.54,1.05,4.05-2,8-6.18,8Z"/>
</svg>