<?xml version="1.0" encoding="UTF-8"?>
<svg id="Layer_1" data-name="Layer 1" xmlns="http://www.w3.org/2000/svg" viewBox="0 0 300 300">
  <defs>
    <style>
      .cls-1 {
        fill: #9a2f1f;
      }

      .cls-2 {
        fill: #b0675c;
      }
    </style>
  </defs>
  <path class="cls-1" d="M33.78,66.08l213.37,189.31c-53.46,49.41-136.68,51.16-192.29,1.82C-.71,207.9-8.91,125.05,33.78,66.08Z"/>
  <path class="cls-1" d="M245.13,42.77c55.61,49.33,63.77,132.23,21.05,191.18L52.81,44.64c53.44-49.43,136.72-51.2,192.32-1.87Z"/>
  <path class="cls-2" d="M52.81,44.64l213.37,189.31c-2.76,3.84-5.74,7.55-8.96,11.18-3.22,3.62-6.56,7.05-10.07,10.27L33.78,66.08c2.77-3.86,5.78-7.6,9-11.22,3.22-3.62,6.55-7.03,10.03-10.23Z"/>
</svg>